<svg xmlns="http://www.w3.org/2000/svg" xmlns:xlink="http://www.w3.org/1999/xlink" width="200" zoomAndPan="magnify" viewBox="0 0 150 149.999998" height="200" preserveAspectRatio="xMidYMid meet" version="1.0"><defs><clipPath id="2f52ee9ceb"><path d="M 22.816406 23.851562 L 67.816406 23.851562 L 67.816406 68.851562 L 22.816406 68.851562 Z M 22.816406 23.851562 " clip-rule="nonzero"/></clipPath><clipPath id="e3d2dcbc5e"><path d="M 29.566406 23.851562 L 61.066406 23.851562 C 62.855469 23.851562 64.574219 24.5625 65.839844 25.828125 C 67.105469 27.09375 67.816406 28.8125 67.816406 30.601562 L 67.816406 62.101562 C 67.816406 63.890625 67.105469 65.609375 65.839844 66.875 C 64.574219 68.140625 62.855469 68.851562 61.066406 68.851562 L 29.566406 68.851562 C 25.835938 68.851562 22.816406 65.828125 22.816406 62.101562 L 22.816406 30.601562 C 22.816406 26.875 25.835938 23.851562 29.566406 23.851562 " clip-rule="nonzero"/></clipPath><clipPath id="7192331575"><path d="M 82.183594 23.851562 L 127.183594 23.851562 L 127.183594 68.851562 L 82.183594 68.851562 Z M 82.183594 23.851562 " clip-rule="nonzero"/></clipPath><clipPath id="0cfb3d570b"><path d="M 88.933594 23.851562 L 120.433594 23.851562 C 122.226562 23.851562 123.941406 24.5625 125.207031 25.828125 C 126.472656 27.09375 127.183594 28.8125 127.183594 30.601562 L 127.183594 62.101562 C 127.183594 63.890625 126.472656 65.609375 125.207031 66.875 C 123.941406 68.140625 122.226562 68.851562 120.433594 68.851562 L 88.933594 68.851562 C 85.207031 68.851562 82.183594 65.828125 82.183594 62.101562 L 82.183594 30.601562 C 82.183594 26.875 85.207031 23.851562 88.933594 23.851562 " clip-rule="nonzero"/></clipPath><clipPath id="6f0db9e72a"><path d="M 22.816406 81.148438 L 67.816406 81.148438 L 67.816406 126.148438 L 22.816406 126.148438 Z M 22.816406 81.148438 " clip-rule="nonzero"/></clipPath><clipPath id="9aefd86860"><path d="M 29.566406 81.148438 L 61.066406 81.148438 C 62.855469 81.148438 64.574219 81.859375 65.839844 83.125 C 67.105469 84.390625 67.816406 86.109375 67.816406 87.898438 L 67.816406 119.398438 C 67.816406 121.1875 67.105469 122.90625 65.839844 124.171875 C 64.574219 125.4375 62.855469 126.148438 61.066406 126.148438 L 29.566406 126.148438 C 25.835938 126.148438 22.816406 123.125 22.816406 119.398438 L 22.816406 87.898438 C 22.816406 84.171875 25.835938 81.148438 29.566406 81.148438 " clip-rule="nonzero"/></clipPath><clipPath id="a672f7e6be"><path d="M 82.183594 81.148438 L 127.183594 81.148438 L 127.183594 126.148438 L 82.183594 126.148438 Z M 82.183594 81.148438 " clip-rule="nonzero"/></clipPath><clipPath id="9bef662d7f"><path d="M 88.933594 81.148438 L 120.433594 81.148438 C 122.226562 81.148438 123.941406 81.859375 125.207031 83.125 C 126.472656 84.390625 127.183594 86.109375 127.183594 87.898438 L 127.183594 119.398438 C 127.183594 121.1875 126.472656 122.90625 125.207031 124.171875 C 123.941406 125.4375 122.226562 126.148438 120.433594 126.148438 L 88.933594 126.148438 C 85.207031 126.148438 82.183594 123.125 82.183594 119.398438 L 82.183594 87.898438 C 82.183594 84.171875 85.207031 81.148438 88.933594 81.148438 " clip-rule="nonzero"/></clipPath></defs><g clip-path="url(#2f52ee9ceb)"><g clip-path="url(#e3d2dcbc5e)"><path fill="#7e74f1" d="M 22.816406 23.851562 L 67.816406 23.851562 L 67.816406 68.851562 L 22.816406 68.851562 Z M 22.816406 23.851562 " fill-opacity="1" fill-rule="nonzero"/></g></g><g clip-path="url(#7192331575)"><g clip-path="url(#0cfb3d570b)"><path fill="#7e74f1" d="M 82.183594 23.851562 L 127.183594 23.851562 L 127.183594 68.851562 L 82.183594 68.851562 Z M 82.183594 23.851562 " fill-opacity="1" fill-rule="nonzero"/></g></g><g clip-path="url(#6f0db9e72a)"><g clip-path="url(#9aefd86860)"><path fill="#7e74f1" d="M 22.816406 81.148438 L 67.816406 81.148438 L 67.816406 126.148438 L 22.816406 126.148438 Z M 22.816406 81.148438 " fill-opacity="1" fill-rule="nonzero"/></g></g><g clip-path="url(#a672f7e6be)"><g clip-path="url(#9bef662d7f)"><path fill="#7e74f1" d="M 82.183594 81.148438 L 127.183594 81.148438 L 127.183594 126.148438 L 82.183594 126.148438 Z M 82.183594 81.148438 " fill-opacity="1" fill-rule="nonzero"/></g></g></svg>